<?xml version="1.0" standalone="no"?><!DOCTYPE svg PUBLIC "-//W3C//DTD SVG 1.1//EN" "http://www.w3.org/Graphics/SVG/1.1/DTD/svg11.dtd"><svg t="1600152414034" class="icon" viewBox="0 0 1024 1024" version="1.1" xmlns="http://www.w3.org/2000/svg" p-id="3137" xmlns:xlink="http://www.w3.org/1999/xlink" width="20" height="20"><defs><style type="text/css"></style></defs><path d="M603.2 218.4H420.8c-8.8 0-16-7.2-16-16V20c0-8.8 7.2-16 16-16h182.4c8.8 0 16 7.2 16 16v182.4c0 8.8-7.2 16-16 16z m-166.4-32h150.4V36H436.8v150.4zM202.4 1020H20c-8.8 0-16-7.2-16-16v-182.4c0-8.8 7.2-16 16-16h182.4c8.8 0 16 7.2 16 16v182.4c0 8.8-7.2 16-16 16z m-166.4-32h150.4v-150.4H36v150.4zM603.2 1020H420.8c-8.8 0-16-7.2-16-16v-182.4c0-8.8 7.2-16 16-16h182.4c8.8 0 16 7.2 16 16v182.4c0 8.8-7.2 16-16 16z m-166.4-32h150.4v-150.4H436.8v150.4zM1004 1020h-182.4c-8.8 0-16-7.2-16-16v-182.4c0-8.8 7.2-16 16-16h182.4c8.8 0 16 7.2 16 16v182.4c0 8.8-7.2 16-16 16z m-166.4-32h150.4v-150.4h-150.4v150.4z" p-id="3138"></path><path d="M512 837.6c-8.8 0-16-7.2-16-16V202.4c0-8.8 7.2-16 16-16s16 7.2 16 16v620c0 8-7.2 15.2-16 15.2z" p-id="3139"></path><path d="M912.8 837.6c-8.8 0-16-7.2-16-16V528H127.2v293.6c0 8.8-7.2 16-16 16s-16-7.2-16-16V512c0-8.8 7.2-16 16-16h801.6c8.8 0 16 7.2 16 16v309.6c0 8.8-7.2 16-16 16z" p-id="3140"></path></svg>