<svg t="1595211952648" class="icon" viewBox="0 0 1024 1024" version="1.1" xmlns="http://www.w3.org/2000/svg" p-id="15249" width="20" height="20"><path d="M656.384 66.56c-3.072 0-5.12-1.024-7.168-3.072-2.048-2.048-3.072-4.096-3.072-7.168 0-3.072 1.024-5.12 3.072-7.168 4.096-4.096 10.24-4.096 14.336 0 2.048 2.048 3.072 5.12 3.072 7.168 0 3.072-1.024 5.12-3.072 7.168-2.048 2.048-5.12 3.072-7.168 3.072zM506.88 697.344c-18.432 0-37.888-3.072-56.32-9.216l-4.096-1.024c-45.056-15.36-82.944-47.104-104.448-89.088-21.504-43.008-25.6-91.136-10.24-137.216l74.752-227.328c30.72-94.208 132.096-145.408 226.304-114.688l4.096 1.024c45.056 15.36 82.944 47.104 104.448 89.088 21.504 43.008 25.6 91.136 10.24 137.216L677.888 573.44c-15.36 45.056-47.104 82.944-89.088 104.448-25.6 13.312-53.248 19.456-81.92 19.456z m70.656-567.296c-24.576 0-49.152 6.144-71.68 17.408-37.888 19.456-65.536 52.224-78.848 92.16l-74.752 227.328c-13.312 39.936-10.24 82.944 9.216 120.832s52.224 65.536 92.16 78.848l4.096 1.024c39.936 13.312 82.944 10.24 120.832-9.216 37.888-19.456 65.536-52.224 78.848-92.16l74.752-227.328c13.312-39.936 10.24-82.944-9.216-120.832s-52.224-65.536-92.16-78.848l-4.096-1.024c-15.36-5.12-32.768-8.192-49.152-8.192z" p-id="15250"></path><path d="M504.832 773.12c-26.624 0-53.248-4.096-78.848-12.288-62.464-20.48-113.664-63.488-144.384-121.856S245.76 515.072 266.24 453.632l25.6-77.824c2.048-5.12 7.168-8.192 13.312-6.144 5.12 2.048 8.192 7.168 6.144 13.312L285.696 460.8c-18.432 56.32-13.312 116.736 14.336 169.984 27.648 53.248 74.752 93.184 132.096 111.616 57.344 18.432 118.784 14.336 173.056-12.288 53.248-26.624 93.184-71.68 111.616-128l25.6-77.824c2.048-5.12 7.168-8.192 13.312-6.144 5.12 2.048 8.192 7.168 6.144 13.312l-25.6 77.824c-20.48 61.44-63.488 111.616-121.856 140.288-34.816 15.36-71.68 23.552-109.568 23.552z" p-id="15251"></path><path d="M377.856 937.984c-2.048 0-3.072 0-5.12-1.024-5.12-2.048-9.216-6.144-10.24-11.264l-13.312-49.152c-1.024-3.072-1.024-7.168 0-10.24L389.12 744.448c3.072-9.216 12.288-14.336 20.48-11.264l53.248 17.408c8.192 3.072 12.288 12.288 10.24 21.504l-39.936 121.856c-1.024 3.072-3.072 6.144-6.144 8.192l-39.936 31.744c-2.048 3.072-6.144 4.096-9.216 4.096z m-8.192-65.536l11.264 41.984 33.792-26.624 38.912-117.76-44.032-14.336-39.936 116.736z" p-id="15252"></path><path d="M418.816 898.048h-3.072L361.472 880.64c-5.12-2.048-8.192-7.168-6.144-13.312 2.048-5.12 7.168-8.192 13.312-6.144l54.272 17.408c5.12 2.048 8.192 7.168 6.144 13.312-2.048 3.072-6.144 6.144-10.24 6.144z" p-id="15253"></path></svg>