<?xml version="1.0" standalone="no"?><!DOCTYPE svg PUBLIC "-//W3C//DTD SVG 1.1//EN" "http://www.w3.org/Graphics/SVG/1.1/DTD/svg11.dtd"><svg t="1600135030485" class="icon" viewBox="0 0 1024 1024" version="1.1" xmlns="http://www.w3.org/2000/svg" p-id="2379" xmlns:xlink="http://www.w3.org/1999/xlink" width="20" height="20"><defs><style type="text/css"></style></defs><path d="M835.468411 393.061615c53.094815 0 91.891026 44.095694 92.290987 98.290401v196.380823c0 185.881847-25.39752 336.267161-295.871106 336.267161-118.488429 0-174.482961-24.197637-223.478176-65.393614-6.499365-4.0996-12.59877-8.899131-17.898252-14.498584L122.638024 669.634606c-45.595547-46.995411-24.697588-113.188946 7.099306-146.085734 31.796895-32.896787 98.290401-38.29626 135.586759 0l58.294308 59.994141V202.080266c0-54.294698 42.995801-98.390392 95.990626-98.390392 52.694854 0 92.690948 44.095694 92.690948 98.390392v99.090323c13.498682-7.299287 28.797188-11.598867 45.195586-11.598867 42.195879 0 75.092667 27.897276 87.791427 66.493506 15.298506-9.699053 33.096768-14.898545 51.195-14.798555 42.195879 0 75.092667 27.797285 87.791427 66.493507 14.598574-9.399082 29.89708-14.798555 48.595254-14.798555l2.599746 0.09999zM876.964359 687.632848c0-41.595938 0-190.181428 0.799922-189.781466 0-48.395274-44.095694-46.59545-44.095694-46.59545-24.997559 0-43.695733 20.997949-43.695733 46.59545v102.390001h-0.399961c0.299971 1.399863 0.299971 3.299678 0.299971 5.099502 0 14.098623-10.398984 25.5975-24.597598 25.5975-14.098623 0-25.49751-11.398887-25.39752-25.49751v-0.09999c0-1.499854 0-3.299678 0.299971-5.099502h-0.299971V450.156039c0-43.795723-45.595547-46.69544-45.595547-46.695439-24.997559 0-42.995801 20.997949-42.995801 46.695439v118.88839h-0.299971c0.299971 1.499854 0.299971 3.299678 0.299971 5.099502 0 14.098623-11.198906 25.69749-25.39752 25.697491-14.098623 0-25.49751-11.398887-25.39752-25.49751v-0.099991c0-1.499854 0-3.299678 0.399961-5.099502h-0.29997V398.461088c0-47.395372-44.495655-46.59545-44.495655-46.59545-24.997559 0-43.295772 20.997949-43.295772 46.59545v129.087394h-0.399961c0.399961 1.499854 0.399961 3.299678 0.399961 5.099502 0 14.098623-11.198906 25.69749-25.39752 25.69749-14.098623 0-25.39752-11.498877-25.39752-25.49751v-0.09999c0-1.499854 0-3.299678 0.299971-5.099502h-0.299971V212.27927c0-25.29753-17.19832-46.295479-42.195879-46.295479-24.997559 0-45.595547 20.597988-45.595547 46.295479V707.930866s-25.39752-26.397422-54.494679-56.094522l-82.891905-84.9917c-17.898252-18.098233-51.594961-17.298311-69.893174 1.499854-18.298213 18.798164-23.897666 48.495264-1.499854 71.593008l254.075188 259.974612c47.095401 48.095303 109.089347 71.992969 212.579241 71.992969C876.164437 971.905087 876.964359 844.617518 876.964359 687.632848zM285.922078 348.165999c-40.196075-38.39625-62.893858-91.591056-62.693878-147.185626 0-110.989161 86.991505-200.980373 194.680989-200.980373S612.990138 90.091202 612.990138 200.980373c0 18.498194-2.999707 36.496436-7.499268 53.494776-12.198809-12.89874-28.997168-20.398008-46.69544-20.99795 2.599746-10.498975 3.699639-21.29792 3.699639-32.596816 0-82.091983-64.693682-148.985451-144.58588-148.985451s-144.58588 66.593497-144.585881 148.985451c0 21.29792 4.899522 41.995899 12.69876 60.394102l-0.09999 86.891514z" p-id="2380"></path></svg>