<?xml version="1.0" standalone="no"?><!DOCTYPE svg PUBLIC "-//W3C//DTD SVG 1.1//EN" "http://www.w3.org/Graphics/SVG/1.1/DTD/svg11.dtd"><svg t="1600312419827" class="icon" viewBox="0 0 1024 1024" version="1.1" xmlns="http://www.w3.org/2000/svg" p-id="3205" xmlns:xlink="http://www.w3.org/1999/xlink" width="20" height="20"><defs><style type="text/css"></style></defs><path d="M908.45 271.62c-16.42-6.33-35 1.89-41.34 18.41l-16.3 42.45C785.39 208.98 656.05 128 512 128c-173.38 0-325.77 117.08-370.59 284.72-4.58 17.08 5.56 34.61 22.64 39.17 17.03 4.67 34.61-5.56 39.17-22.64C240.59 289.56 367.56 192 512 192c121.21 0 229.9 68.86 283.88 173.51l-52.8-20.26c-16.56-6.38-35 1.91-41.34 18.41-6.33 16.5 1.91 35.02 18.41 41.34l119.5 45.86c0.48 0.18 0.97 0.11 1.46 0.27 1.78 0.63 3.69 0.73 5.57 1.04 1.49 0.21 2.96 0.83 4.45 0.83 0.1 0 0.2-0.04 0.29-0.04 0.09 0 0.18 0.04 0.27 0.04 2.73 0 5.52-0.36 8.28-1.11 0.91-0.24 1.55-0.89 2.42-1.2 2.42-0.92 4.79-1.96 6.93-3.43 2.26-1.51 4.06-3.37 5.83-5.37 0.43-0.5 0.88-0.95 1.28-1.47 1.91-2.43 3.37-4.99 4.51-7.86 0.02-0.04 0.04-0.07 0.06-0.11l45.88-119.48c6.31-16.5-1.93-35.02-18.43-41.35zM859.95 572.11c-17.11-4.67-34.62 5.56-39.17 22.64C783.41 734.44 656.44 832 512 832c-121.21 0-229.9-68.86-283.88-173.51l52.8 20.26c3.78 1.45 7.66 2.14 11.47 2.14 12.86 0 24.98-7.83 29.88-20.55 6.33-16.5-1.91-35.02-18.41-41.34l-119.5-45.86c-1.46-0.57-2.96-0.42-4.44-0.76-1.85-0.47-3.64-0.83-5.57-0.95-2.13-0.1-4.13 0.09-6.2 0.41-1.38 0.19-2.72-0.11-4.1 0.27-0.96 0.26-1.64 0.93-2.55 1.27-1.32 0.51-2.48 1.17-3.72 1.85-2.79 1.46-5.3 3.12-7.49 5.26-0.34 0.34-0.61 0.71-0.93 1.07-2.73 2.93-4.81 6.19-6.28 9.91-0.01 0.03-0.04 0.05-0.05 0.08L97.14 711.03c-6.33 16.5 1.91 35.02 18.41 41.34 3.77 1.45 7.64 2.14 11.47 2.14 12.86 0 24.98-7.81 29.88-20.55l16.3-42.45C238.61 815.02 367.95 896 512 896c173.38 0 325.77-117.08 370.59-284.72 4.58-17.08-5.56-34.61-22.64-39.17z" p-id="3206"></path></svg>