<?xml version="1.0" standalone="no"?><!DOCTYPE svg PUBLIC "-//W3C//DTD SVG 1.1//EN" "http://www.w3.org/Graphics/SVG/1.1/DTD/svg11.dtd"><svg t="1601275347298" class="icon" viewBox="0 0 1024 1024" version="1.1" xmlns="http://www.w3.org/2000/svg" p-id="2835" xmlns:xlink="http://www.w3.org/1999/xlink" width="20" height="20"><defs><style type="text/css"></style></defs><path d="M725.333333 413.866667l149.333334 85.333333-149.333334 85.333333 149.333334 85.333334-349.866667 200.533333L170.666667 669.866667l149.333333-85.333334-149.333333-85.333333 149.333333-85.333333-149.333333-85.333334L520.533333 128l349.866667 204.8L725.333333 413.866667z m-362.666666 25.6L256 499.2l264.533333 153.6 264.533334-153.6-102.4-59.733333-162.133334 93.866666-157.866666-93.866666z m320 170.666666l-162.133334 93.866667-162.133333-93.866667L256 669.866667l264.533333 153.6 264.533334-153.6-102.4-59.733334zM520.533333 179.2L256 328.533333l264.533333 153.6 264.533334-153.6-264.533334-149.333333z" p-id="2836"></path></svg>